<?xml version="1.0" encoding="utf-8"?>
<!-- Generator: Adobe Illustrator 27.7.0, SVG Export Plug-In . SVG Version: 6.00 Build 0)  -->
<svg version="1.1" id="Layer_1" xmlns="http://www.w3.org/2000/svg" xmlns:xlink="http://www.w3.org/1999/xlink" x="0px" y="0px"
	 viewBox="0 0 512 512" style="enable-background:new 0 0 512 512;" xml:space="preserve">
<style type="text/css">
	.st0{fill:#3178C6;}
</style>
<path class="st0" d="M376.9,116H145.2c-15.5,0-28.1,12.6-28.1,28.1v231.7c0,15.5,12.6,28.1,28.1,28.1h231.8
	c15.5,0,28.1-12.6,28.1-28.1V144.1C405,128.6,392.5,116,376.9,116z M284.1,275.8H248v102.9h-28.6V275.8h-35.9v-23.1h100.7V275.8z
	 M377.4,360.4c-2.7,4.8-6.3,8.7-10.9,11.6c-4.6,3-9.9,5.1-16,6.4c-6.1,1.3-12.5,1.9-19.2,1.9c-6.9,0-13.5-0.6-19.8-1.8
	s-11.7-2.9-16.2-5.3v-28.2c5.1,4.3,10.7,7.5,16.6,9.6c6,2.1,12,3.2,18.1,3.2c3.6,0,6.7-0.3,9.4-1c2.7-0.6,4.9-1.5,6.7-2.7
	s3.1-2.5,4-4c0.9-1.6,1.3-3.2,1.3-5.1c0-2.5-0.7-4.7-2.1-6.6c-1.4-1.9-3.3-3.7-5.8-5.4c-2.4-1.6-5.3-3.2-8.7-4.8
	c-3.3-1.5-7-3.1-10.8-4.7c-9.9-4.1-17.2-9.1-22.1-15c-4.8-5.9-7.3-13.1-7.3-21.5c0-6.6,1.3-12.2,4-16.9c2.6-4.7,6.2-8.6,10.8-11.7
	c4.5-3,9.8-5.3,15.8-6.7s12.3-2.2,19-2.2c6.6,0,12.4,0.4,17.5,1.2s9.8,2,14,3.7V281c-2.1-1.5-4.4-2.8-6.9-3.9
	c-2.5-1.1-5.1-2-7.7-2.8c-2.6-0.7-5.3-1.3-7.9-1.6s-5.1-0.5-7.4-0.5c-3.2,0-6.2,0.3-8.8,0.9s-4.9,1.5-6.7,2.6
	c-1.8,1.1-3.2,2.4-4.2,4s-1.5,3.3-1.5,5.2c0,2.1,0.6,4,1.7,5.7c1.1,1.7,2.7,3.3,4.8,4.8c2.1,1.5,4.5,3,7.5,4.4
	c2.9,1.4,6.3,2.9,9.9,4.4c5,2.1,9.6,4.4,13.6,6.7s7.5,5.1,10.3,8.1c2.9,3,5.1,6.4,6.6,10.3c1.5,3.8,2.3,8.3,2.3,13.4
	C381.4,349.7,380.1,355.6,377.4,360.4z"/>
</svg>
