<?xml version="1.0" encoding="utf-8"?>
<!-- Generator: Adobe Illustrator 27.7.0, SVG Export Plug-In . SVG Version: 6.00 Build 0)  -->
<svg version="1.1" id="Layer_1" xmlns="http://www.w3.org/2000/svg" xmlns:xlink="http://www.w3.org/1999/xlink" x="0px" y="0px"
	 viewBox="0 0 512 512" style="enable-background:new 0 0 512 512;" xml:space="preserve">
<path d="M428.1,313.4c-1.6-3.2-2.6-7.4-2.8-12.5s-0.7-7.9-1.2-8.5c-0.5-0.5-1.3,1.3-2.4,5.6c-1.1,5.9-3.1,11.2-6,15.7
	c-3,4.6-6.3,7.7-10.1,9.3c-2.2,1.1-4.8,1.6-8.1,1.6s-5.4-0.1-6.5-0.4c-1.1-0.3-2.7-1.2-4.8-2.8c-2.7-2.7-4.3-4-4.8-4
	s-1.5-1.5-2.8-4.4c-1.3-3-2-5.5-2-7.7c0-2.2-0.7-4.3-2-6.5c-1.3-2.2-2-4.4-2-6.9s0.5-4.4,1.6-6c1.1-1.6,1.7-3.4,2-5.2
	c0.3-1.9,0.7-3.1,1.2-3.6s1.5-0.8,2.8-0.8s2.2-0.4,2.4-1.2l2-6c0.5-4.8,1.6-8.1,3.2-9.7c1.6-1.6,2.3-3.5,2-5.6s-0.7-3.5-1.2-4
	c-0.5-0.5-1.3-0.8-2.4-0.8c-3.2,0-5.1-1.3-5.6-4c-0.5-2.7,0.5-4.6,3.2-5.6c2.7-1.1,4.4-2.7,5.2-4.8s1.1-3.4,0.8-3.6l-2-2
	c-5.9-4.3-9.4-8.9-10.5-13.7c-1.6-6.5-0.8-12.2,2.4-17.3c3.2-5.1,8.1-8.2,14.5-9.3c3.2-0.5,5.1-1.1,5.6-1.6c0.5-0.5,0.8-1.5,0.8-2.8
	s-0.3-2.3-0.8-2.8c-0.5-0.5-1.6-0.9-3.2-1.2c-1.6-0.3-2.6-1.7-2.8-4.4s0.4-4.3,2-4.8c1.6-0.5,3.9-2,6.9-4.4c3-2.4,5.5-3.8,7.7-4
	c2.2-0.3,3.4-0.7,3.6-1.2s0.3-1.6,0-3.2c-0.3-1.6,0.4-3.8,2-6.5c3.2-6.5,2.2-8.3-3.2-5.6c-2.2,0.5-3.2,1.3-3.2,2.4s-0.9,2.4-2.8,4
	c-1.9,1.6-3.2,2.6-4,2.8c-0.8,0.3-2.7,0.3-5.6,0s-4.8,0-5.6,0.8c-0.8,0.8-0.9,2.2-0.4,4c0.5,1.9,0.7,3.8,0.4,5.6
	c-0.3,1.9-0.9,2.8-2,2.8s-1.9,0.9-2.4,2.8c-0.5,1.9-0.5,3.4,0,4.4c1.6,2.7,0.3,4-4,4c-2.2,0-3.6,0.5-4.4,1.6
	c-0.8,1.1-1.6,1.5-2.4,1.2s-2.2-1.3-4-3.2c-1.9-1.9-3.2-3-4-3.2s-3.1-0.4-6.9-0.4c-5.4,0.5-8.5,0.4-9.3-0.4s-2-1.2-3.6-1.2
	c-1.6,0-2.2,0.5-1.6,1.6c0.5,1.1,0.1,2.8-1.2,5.2c-1.3,2.4-2.7,4-4,4.8c-1.3,0.8-3.2,1.2-5.6,1.2c-2.4,0-4.6-0.9-6.5-2.8
	c-1.9-1.9-2.8-3.8-2.8-5.6c0-1.9-0.8-3.8-2.4-5.6c-1.6-1.9-2-3.5-1.2-4.8c0.8-1.3,1.1-2.7,0.8-4c-0.3-1.3-1.2-2.4-2.8-3.2
	c-1.6-0.8-2.8-0.9-3.6-0.4c-0.8,0.5-0.8,1.6,0,3.2c0.8,1.6,0.7,3.2-0.4,4.8c-1.1,1.6-2.3,2.4-3.6,2.4s-2.8,0.5-4.4,1.6
	c-3.8,2.7-7.3,2.7-10.5,0c-2.2-1.1-4.8-1.6-8.1-1.6c-3.2,0-5.2-0.1-6-0.4s-2-1.3-3.6-3.2s-2.6-3.4-2.8-4.4c-0.3-1.1-0.4-3.8-0.4-8.1
	s0.1-7.3,0.4-8.9s0.9-3.2,2-4.8c3.2-5.4,7.7-8.7,13.3-10.1c5.6-1.3,11.4-0.7,17.3,2c1.1,0.5,2,0.8,2.8,0.8s2.3-0.4,4.4-1.2
	c2.2-0.8,4.7-1.3,7.7-1.6c3-0.3,5.2-0.1,6.9,0.4c1.6,0.5,3.2,0.1,4.8-1.2c1.6-1.3,4.4-1.9,8.5-1.6c4,0.3,7.1-0.4,9.3-2
	c2.2-1.6,4-4.4,5.6-8.5c1.6-4,4.3-8.2,8.1-12.5c9.7-9.7,13.2-19.1,10.5-28.2c-1.1-3.2-1.7-5.1-2-5.6c-0.3-0.5-0.9,0.4-2,2.8
	c-1.1,2.4-3.1,5.1-6,8.1c-3,3-5.5,5-7.7,6c-5.4,2.7-10.2,3.1-14.5,1.2c-4.3-1.9-9.4-0.1-15.3,5.2c-3.8,2.7-6.9,4.4-9.3,5.2
	s-5.4,1.1-8.9,0.8c-3.5-0.3-6.2-1.1-8.1-2.4c-1.9-1.3-3.2-2-4-2s-2.4,1.2-4.8,3.6c-2.4,2.4-3.9,4.7-4.4,6.9
	c-2.7,5.9-6.5,10.2-11.3,12.9c-4.8,2.7-10.2,4.4-16.1,5.2s-10.9,0.4-14.9-1.2c-4-1.6-6.9-2.3-8.5-2c-1.6,0.3-3.6,1.6-6,4
	c-2.4,2.4-3.6,4.4-3.6,6s-0.7,4.3-2,8.1c-1.3,3.8-3,6.7-4.8,8.9c-1.9,2.2-3.4,4.4-4.4,6.9c-1.1,2.4-2.4,4.2-4,5.2
	c-1.6,1.1-4.3,1.9-8.1,2.4c-9.1,0.5-15.9-1.9-20.2-7.3c-2.2-3.2-2.8-5-2-5.2c0.8-0.3,1.7-1.5,2.8-3.6c1.1-2.2,2.8-3.6,5.2-4.4
	c2.4-0.8,3.6-2.3,3.6-4.4c0-2.2-0.4-3.5-1.2-4c-0.8-0.5-2.3-0.7-4.4-0.4c-2.2,0.3-3.8,0.3-4.8,0c-1.1-0.3-2.3-1.1-3.6-2.4
	c-1.3-1.3-2.3-2.4-2.8-3.2c-0.5-0.8-0.8-2.4-0.8-4.8c0-2.4-0.5-4.4-1.6-6l-2.4-2.4l-1.6,2.4c-0.5,1.1-1.7,2.2-3.6,3.2
	c-1.9,1.1-3.1,2.8-3.6,5.2c-0.5,2.4-2.4,5.6-5.6,9.7c-3.2,4-4.8,6.7-4.8,8.1s-1.1,2.8-3.2,4.4c-3.2,2.7-7.3,3-12.1,0.8
	c-2.2-0.5-2.4,2.2-0.8,8.1c0.5,2.7,1.9,4.3,4,4.8c2.2,0.5,3.9,2.3,5.2,5.2c1.3,3,2,5.1,2,6.5s-0.3,2.8-0.8,4.4c-0.5,1.6-0.5,3,0,4
	c0.5,1.1,1.7,2.2,3.6,3.2c1.9,1.1,2.8,2,2.8,2.8s-0.9,2.2-2.8,4c-1.9,1.9-4.2,2.8-6.9,2.8s-5-0.7-6.9-2c-1.9-1.3-3-2-3.2-2
	c-0.3,0-0.8,1.3-1.6,4c-0.8,2.7-2,4.8-3.6,6.5c-4.8,4.8-8.5,7.7-10.9,8.5c-2.4,0.8-5.4,0.8-8.9,0c-3.5-0.8-6.5-2-8.9-3.6
	s-3.9-2.4-4.4-2.4s-1.9-0.8-4-2.4c-4.3-3.8-5.4-2.4-3.2,4c1.1,3.8,1.3,6.7,0.8,8.9c-1.6,5.4-1.9,8.3-0.8,8.9c1.1,0.5,3,0.5,5.6,0
	c5.4-1.6,9.4-0.3,12.1,4c2.2,3.2,2.6,6.5,1.2,9.7c-1.3,3.2-4.2,5.9-8.5,8.1c-2.7,1.6-4.3,3-4.8,4c-0.5,1.1-0.5,3,0,5.6
	c0,1.6,0.3,2.7,0.8,3.2s1.6,0.8,3.2,0.8c3.2,0.5,5.6,2.6,7.3,6c1.6,3.5,1.6,6.3,0,8.5c-0.5,1.1-0.3,2.4,0.8,4
	c3.2,4.8,4.3,12.4,3.2,22.6c-0.5,4.8-1.6,8.7-3.2,11.7c-1.6,3-3.8,5.5-6.5,7.7l-8.1,5.6c-2.2,1.6-4.3,2.6-6.5,2.8
	c-2.2,0.3-4,0-5.6-0.8c-1.6-0.8-2.4-0.7-2.4,0.4c0,3.2,1.3,7.1,4,11.7s6.2,9,10.5,13.3c2.7,2.7,4.6,4.3,5.6,4.8
	c1.1,0.5,2.6,0.8,4.4,0.8c1.9,0,4.4,0.9,7.7,2.8c3.2,1.9,5.4,3.9,6.5,6c2.7,4.3,4.3,11.3,4.8,21c0,5.4-0.4,8.9-1.2,10.5
	c-0.8,1.6-2.8,3.2-6,4.8c-3.2,1.6-4.8,2.7-4.8,3.2s3.1,1.5,9.3,2.8s9.9,1.9,11.3,1.6c1.3-0.3,4.7,0.1,10.1,1.2
	c11.3,1.6,21,6.2,29,13.7c5.9,5.4,9.1,10.8,9.7,16.1c0.5,2.7,1.1,4.3,1.6,4.8s1.9,1.1,4,1.6c2.2,0.5,4.4,0,6.9-1.6
	c2.4-1.6,5.9-3.2,10.5-4.8c4.6-1.6,8.3-2.3,11.3-2c3,0.3,6,1.5,9.3,3.6c3.2,2.2,6.5,3.6,9.7,4.4c3.2,0.8,6,0.9,8.5,0.4
	c2.4-0.5,4.4-2.7,6-6.5c2.7-5.4,6.5-9,11.3-10.9c4.8-1.9,10.2-1.7,16.1,0.4c7,2.2,11.8,5.6,14.5,10.5c1.6,2.2,4.2,4.2,7.7,6
	c3.5,1.9,7.1,2.8,10.9,2.8h5.6l0.8-5.6c0-4.3,0.5-7.4,1.6-9.3c1.1-1.9,3.6-5,7.7-9.3s7.7-7.5,10.9-9.7c6.5-4.8,12.4-7.3,17.7-7.3
	c3.2,0,5.4-0.3,6.5-0.8c2.2-1.1,2.2-5.4,0-12.9c-2.2-6.5-1.9-12.6,0.8-18.5c1.6-2.7,4.2-5.1,7.7-7.3c3.5-2.2,6.7-3.4,9.7-3.6
	c3-0.3,5.2-1.1,6.9-2.4c1.6-1.3,3-3.6,4-6.9c1.6-5.9,5.6-10.5,12.1-13.7c3.8-1.6,7-3.9,9.7-6.9c2.7-3,5.4-5,8.1-6
	c2.7-1.1,5.2-2.7,7.7-4.8c2.4-2.2,3.6-3.9,3.6-5.2S429.7,316.6,428.1,313.4z M243.4,399.7c-18.3,0-34.9-4.4-50-13.3
	s-27.2-21-36.3-36.3s-13.7-32-13.7-50s4.6-34.7,13.7-50s21.2-27.6,36.3-36.7c15.1-9.1,31.7-13.7,50-13.7s35.1,4.6,50.4,13.7
	c15.3,9.1,27.4,21.4,36.3,36.7s13.3,32,13.3,50s-4.4,34.7-13.3,50s-21,27.4-36.3,36.3C278.5,395.3,261.7,399.7,243.4,399.7z"/>
</svg>
